<svg width="216" height="39" viewBox="0 0 216 39" fill="none" xmlns="http://www.w3.org/2000/svg">
<rect x="137" width="79" height="37" fill="#46BED9"/>
<path d="M9.96 10.69C9.56 10.69 9.27 10.61 9.09 10.45C8.93 10.27 8.85 10.05 8.85 9.79V9.52C8.85 9.26 8.93 9.05 9.09 8.89C9.27 8.71 9.56 8.62 9.96 8.62C10.36 8.62 10.64 8.71 10.8 8.89C10.98 9.05 11.07 9.26 11.07 9.52V9.79C11.07 10.05 10.98 10.27 10.8 10.45C10.64 10.61 10.36 10.69 9.96 10.69ZM3.42 30.07H9.45V16.45H3.42V15.52H10.5V30.07H16.14V31H3.42V30.07ZM20.0583 31V15.52H21.0483V17.35H21.1383C21.3783 16.71 21.7383 16.19 22.2183 15.79C22.7183 15.37 23.4083 15.16 24.2883 15.16C25.1483 15.16 25.8283 15.38 26.3283 15.82C26.8283 16.24 27.1583 16.84 27.3183 17.62H27.3783C27.6183 16.92 27.9983 16.34 28.5183 15.88C29.0583 15.4 29.7983 15.16 30.7383 15.16C31.8583 15.16 32.6683 15.52 33.1683 16.24C33.6883 16.94 33.9483 17.96 33.9483 19.3V31H32.9583V19.45C32.9583 18.25 32.7483 17.39 32.3283 16.87C31.9283 16.33 31.3083 16.06 30.4683 16.06C29.6483 16.06 28.9483 16.35 28.3683 16.93C27.7883 17.49 27.4983 18.35 27.4983 19.51V31H26.5083V19.45C26.5083 18.25 26.2983 17.39 25.8783 16.87C25.4783 16.33 24.8583 16.06 24.0183 16.06C23.2183 16.06 22.5183 16.35 21.9183 16.93C21.3383 17.49 21.0483 18.35 21.0483 19.51V31H20.0583ZM45.1866 31.36C43.1066 31.36 41.4766 30.67 40.2966 29.29C39.1366 27.91 38.5566 25.9 38.5566 23.26C38.5566 20.62 39.1366 18.61 40.2966 17.23C41.4566 15.85 43.0366 15.16 45.0366 15.16C46.0766 15.16 46.9966 15.35 47.7966 15.73C48.5966 16.09 49.2666 16.61 49.8066 17.29C50.3466 17.97 50.7566 18.79 51.0366 19.75C51.3166 20.71 51.4566 21.77 51.4566 22.93V23.35H39.6966V24.13C39.6966 26.07 40.1666 27.61 41.1066 28.75C42.0666 29.87 43.4266 30.43 45.1866 30.43C46.4266 30.43 47.4766 30.14 48.3366 29.56C49.1966 28.98 49.8566 28.11 50.3166 26.95L51.1566 27.4C50.6966 28.6 49.9566 29.56 48.9366 30.28C47.9366 31 46.6866 31.36 45.1866 31.36ZM45.0366 16.06C43.3366 16.06 42.0166 16.63 41.0766 17.77C40.1566 18.91 39.6966 20.45 39.6966 22.39V22.51H50.3466V22.36C50.3466 20.42 49.8866 18.89 48.9666 17.77C48.0466 16.63 46.7366 16.06 45.0366 16.06ZM56.3348 30.07H61.4948V16.45H56.3348V15.52H62.5448V18.73H62.6348C62.8148 18.29 63.0248 17.88 63.2648 17.5C63.5248 17.1 63.8448 16.76 64.2248 16.48C64.6248 16.18 65.0948 15.95 65.6348 15.79C66.1748 15.61 66.8048 15.52 67.5248 15.52H70.6748V16.51H67.2548C66.5948 16.51 65.9748 16.62 65.3948 16.84C64.8348 17.04 64.3448 17.34 63.9248 17.74C63.5048 18.14 63.1648 18.65 62.9048 19.27C62.6648 19.87 62.5448 20.56 62.5448 21.34V30.07H69.1448V31H56.3348V30.07ZM81.4031 31.36C79.9031 31.36 78.5831 31.11 77.4431 30.61C76.3231 30.09 75.3431 29.32 74.5031 28.3L75.2531 27.67C76.0331 28.63 76.9131 29.34 77.8931 29.8C78.8931 30.24 80.0631 30.46 81.4031 30.46C82.9231 30.46 84.1431 30.17 85.0631 29.59C86.0031 28.99 86.4731 28.07 86.4731 26.83C86.4731 26.29 86.3831 25.84 86.2031 25.48C86.0231 25.12 85.7631 24.83 85.4231 24.61C85.0831 24.37 84.6731 24.19 84.1931 24.07C83.7131 23.93 83.1831 23.82 82.6031 23.74L80.2031 23.41C79.5431 23.31 78.9131 23.19 78.3131 23.05C77.7131 22.89 77.1831 22.66 76.7231 22.36C76.2831 22.06 75.9231 21.68 75.6431 21.22C75.3831 20.74 75.2531 20.14 75.2531 19.42C75.2531 18.66 75.4031 18.01 75.7031 17.47C76.0031 16.93 76.4031 16.49 76.9031 16.15C77.4231 15.81 78.0231 15.56 78.7031 15.4C79.4031 15.24 80.1431 15.16 80.9231 15.16C81.6631 15.16 82.3331 15.23 82.9331 15.37C83.5531 15.49 84.1031 15.67 84.5831 15.91C85.0831 16.13 85.5231 16.39 85.9031 16.69C86.3031 16.97 86.6531 17.27 86.9531 17.59L86.2331 18.31C85.9931 18.03 85.7131 17.76 85.3931 17.5C85.0731 17.22 84.6931 16.98 84.2531 16.78C83.8331 16.56 83.3431 16.39 82.7831 16.27C82.2431 16.13 81.6131 16.06 80.8931 16.06C79.4931 16.06 78.3731 16.33 77.5331 16.87C76.7131 17.39 76.3031 18.22 76.3031 19.36C76.3031 19.9 76.3931 20.35 76.5731 20.71C76.7531 21.05 77.0131 21.34 77.3531 21.58C77.6931 21.8 78.1031 21.98 78.5831 22.12C79.0631 22.24 79.5931 22.34 80.1731 22.42L82.6031 22.78C83.2631 22.88 83.8831 23.01 84.4631 23.17C85.0631 23.31 85.5831 23.53 86.0231 23.83C86.4831 24.11 86.8431 24.49 87.1031 24.97C87.3831 25.45 87.5231 26.05 87.5231 26.77C87.5231 27.55 87.3631 28.23 87.0431 28.81C86.7431 29.39 86.3231 29.87 85.7831 30.25C85.2431 30.61 84.5931 30.88 83.8331 31.06C83.0931 31.26 82.2831 31.36 81.4031 31.36ZM103.861 31C103.401 31 103.071 30.89 102.871 30.67C102.671 30.45 102.561 30.14 102.541 29.74V28.63H102.421C102.061 29.39 101.481 30.04 100.681 30.58C99.8814 31.1 98.7814 31.36 97.3814 31.36C95.7214 31.36 94.4414 30.98 93.5414 30.22C92.6414 29.46 92.1914 28.38 92.1914 26.98C92.1914 26.34 92.2914 25.75 92.4914 25.21C92.6914 24.67 93.0314 24.21 93.5114 23.83C93.9914 23.43 94.6214 23.13 95.4014 22.93C96.1814 22.71 97.1414 22.6 98.2814 22.6H102.511V20.38C102.511 18.92 102.121 17.84 101.341 17.14C100.581 16.44 99.5314 16.09 98.1914 16.09C97.1114 16.09 96.1614 16.32 95.3414 16.78C94.5214 17.22 93.9014 17.92 93.4814 18.88L92.7014 18.37C93.1214 17.41 93.7814 16.64 94.6814 16.06C95.6014 15.46 96.7814 15.16 98.2214 15.16C99.9014 15.16 101.211 15.61 102.151 16.51C103.091 17.39 103.561 18.64 103.561 20.26V30.07H106.021V31H103.861ZM97.4714 30.46C98.1514 30.46 98.7914 30.38 99.3914 30.22C100.011 30.04 100.551 29.79 101.011 29.47C101.471 29.13 101.831 28.72 102.091 28.24C102.371 27.76 102.511 27.2 102.511 26.56V23.44H98.3114C96.5314 23.44 95.2514 23.73 94.4714 24.31C93.7114 24.87 93.3314 25.61 93.3314 26.53V27.43C93.3314 28.41 93.7114 29.16 94.4714 29.68C95.2314 30.2 96.2314 30.46 97.4714 30.46ZM100.411 12.04C100.031 12.04 99.6614 11.97 99.3014 11.83C98.9614 11.67 98.5614 11.45 98.1014 11.17C97.6414 10.89 97.2614 10.7 96.9614 10.6C96.6614 10.48 96.3714 10.42 96.0914 10.42C95.7314 10.42 95.4014 10.5 95.1014 10.66C94.8014 10.8 94.4914 11.03 94.1714 11.35L93.6614 10.81C94.0014 10.41 94.3714 10.1 94.7714 9.88C95.1914 9.64 95.6514 9.52 96.1514 9.52C96.5314 9.52 96.8914 9.6 97.2314 9.76C97.5914 9.9 98.0014 10.11 98.4614 10.39C98.9214 10.67 99.3014 10.87 99.6014 10.99C99.9014 11.09 100.191 11.14 100.471 11.14C100.831 11.14 101.161 11.07 101.461 10.93C101.761 10.77 102.071 10.53 102.391 10.21L102.901 10.75C102.561 11.15 102.181 11.47 101.761 11.71C101.361 11.93 100.911 12.04 100.411 12.04ZM116.93 31.36C114.89 31.36 113.3 30.67 112.16 29.29C111.02 27.91 110.45 25.9 110.45 23.26C110.45 20.62 111.02 18.61 112.16 17.23C113.3 15.85 114.89 15.16 116.93 15.16C118.97 15.16 120.56 15.85 121.7 17.23C122.84 18.61 123.41 20.62 123.41 23.26C123.41 25.9 122.84 27.91 121.7 29.29C120.56 30.67 118.97 31.36 116.93 31.36ZM116.93 30.43C118.63 30.43 119.94 29.87 120.86 28.75C121.8 27.63 122.27 26.07 122.27 24.07V22.45C122.27 20.45 121.8 18.89 120.86 17.77C119.94 16.65 118.63 16.09 116.93 16.09C115.23 16.09 113.91 16.65 112.97 17.77C112.05 18.89 111.59 20.45 111.59 22.45V24.07C111.59 26.07 112.05 27.63 112.97 28.75C113.91 29.87 115.23 30.43 116.93 30.43ZM156.656 28.48H156.536C155.536 30.4 153.946 31.36 151.766 31.36C149.866 31.36 148.376 30.65 147.296 29.23C146.236 27.81 145.706 25.82 145.706 23.26C145.706 20.7 146.236 18.71 147.296 17.29C148.376 15.87 149.866 15.16 151.766 15.16C153.946 15.16 155.536 16.12 156.536 18.04H156.656V8.8H159.056V31H156.656V28.48ZM152.696 29.23C153.236 29.23 153.746 29.16 154.226 29.02C154.706 28.88 155.126 28.68 155.486 28.42C155.846 28.14 156.126 27.81 156.326 27.43C156.546 27.03 156.656 26.57 156.656 26.05V20.47C156.656 19.95 156.546 19.5 156.326 19.12C156.126 18.72 155.846 18.39 155.486 18.13C155.126 17.85 154.706 17.64 154.226 17.5C153.746 17.36 153.236 17.29 152.696 17.29C151.296 17.29 150.206 17.72 149.426 18.58C148.666 19.42 148.286 20.54 148.286 21.94V24.58C148.286 25.98 148.666 27.11 149.426 27.97C150.206 28.81 151.296 29.23 152.696 29.23ZM171.165 31.36C170.045 31.36 169.035 31.17 168.135 30.79C167.255 30.41 166.495 29.87 165.855 29.17C165.235 28.45 164.755 27.6 164.415 26.62C164.075 25.62 163.905 24.51 163.905 23.29C163.905 22.05 164.075 20.93 164.415 19.93C164.775 18.93 165.265 18.08 165.885 17.38C166.505 16.66 167.245 16.11 168.105 15.73C168.985 15.35 169.955 15.16 171.015 15.16C172.055 15.16 172.995 15.35 173.835 15.73C174.695 16.11 175.425 16.64 176.025 17.32C176.625 17.98 177.085 18.77 177.405 19.69C177.725 20.61 177.885 21.62 177.885 22.72V23.86H166.425V24.58C166.425 25.26 166.535 25.89 166.755 26.47C166.975 27.05 167.285 27.55 167.685 27.97C168.105 28.39 168.605 28.72 169.185 28.96C169.785 29.18 170.445 29.29 171.165 29.29C172.205 29.29 173.105 29.05 173.865 28.57C174.625 28.09 175.205 27.43 175.605 26.59L177.375 27.79C176.915 28.83 176.145 29.69 175.065 30.37C174.005 31.03 172.705 31.36 171.165 31.36ZM171.015 17.14C170.355 17.14 169.745 17.26 169.185 17.5C168.625 17.74 168.135 18.07 167.715 18.49C167.315 18.91 166.995 19.41 166.755 19.99C166.535 20.55 166.425 21.17 166.425 21.85V22.06H175.305V21.73C175.305 21.05 175.195 20.43 174.975 19.87C174.775 19.31 174.485 18.83 174.105 18.43C173.745 18.01 173.295 17.69 172.755 17.47C172.235 17.25 171.655 17.14 171.015 17.14ZM187.353 31L181.803 15.52H184.233L186.453 22L188.853 28.99H188.973L191.373 22L193.593 15.52H195.963L190.413 31H187.353ZM199.671 36.07V33.85H214.071V36.07H199.671Z" fill="white"/>
</svg>
